<svg id="Layer_1" data-name="Layer 1" xmlns="http://www.w3.org/2000/svg" viewBox="0 0 898.48 256.78"><defs><style>.cls-1{fill:#0458a0;}.cls-2{fill:#faa71b;}.cls-3{fill:#010101;}.cls-4{fill:#f26122;}.cls-5{fill:#ea1d25;}.cls-6{fill:#f69e1e;}</style></defs><title>ccard</title><g id="g4158"><polygon id="polygon9" class="cls-1" points="226.51 210.54 184.17 210.54 210.66 46.77 253 46.77 226.51 210.54"/><path id="path11" class="cls-1" d="M386.08,60.92a104.35,104.35,0,0,0-38-7c-41.82,0-71.26,22.3-71.44,54.18-.35,23.52,21.08,36.59,37.11,44.43,16.38,8,22,13.25,22,20.39-.17,11-13.24,16-25.43,16-16.91,0-26-2.61-39.73-8.71L265,177.64l-5.93,36.76c9.93,4.52,28.23,8.54,47.23,8.72,44.43,0,73.36-22,73.7-55.93.17-18.64-11.15-32.93-35.54-44.6-14.81-7.49-23.88-12.55-23.88-20.21.17-7,7.67-14.11,24.39-14.11a71.94,71.94,0,0,1,31.54,6.27l3.83,1.74,5.76-35.36Z" transform="translate(-6.06 -10.14)"/><path id="path13" class="cls-1" d="M442.36,162.66c3.49-9.41,16.91-45.82,16.91-45.82-.18.35,3.48-9.58,5.57-15.68l3,14.11s8,39.2,9.76,47.39ZM494.62,56.91H461.87c-10.1,0-17.77,3-22.13,13.59l-62.9,150.18h44.43l8.89-24.57h54.37c1.22,5.75,5.05,24.57,5.05,24.57h39.21L494.62,56.91h0Z" transform="translate(-6.06 -10.14)"/><path id="path15" class="cls-1" d="M154.86,56.91,113.39,168.59l-4.53-22.65c-7.67-26.13-31.71-54.53-58.54-68.64l38,143.21h44.78L199.64,56.91H154.86Z" transform="translate(-6.06 -10.14)"/><path id="path17" class="cls-2" d="M74.88,56.91H6.75l-.7,3.31c53.14,13.59,88.34,46.35,102.8,85.72L94,70.68c-2.44-10.46-9.93-13.42-19.17-13.77Z" transform="translate(-6.06 -10.14)"/></g><g id="layer1"><g id="g13"><g id="g15"><path id="_Compound_Path_" data-name="&lt;Compound Path&gt;" class="cls-3" d="M633.84,266.35v-17c0-6.53-4-10.79-10.79-10.79a11.2,11.2,0,0,0-9.66,4.83,9.94,9.94,0,0,0-9.09-4.83,9.17,9.17,0,0,0-8,4v-3.41h-6v27.27h6V251.3c0-4.83,2.56-7.1,6.53-7.1s6,2.56,6,7.1v15.05h6V251.3c0-4.83,2.84-7.1,6.53-7.1,4,0,6,2.56,6,7.1v15.05Zm88.34-27.27h-9.66v-8.24h-6v8.24h-5.4v5.4h5.4V257c0,6.25,2.56,9.94,9.37,9.94a15.89,15.89,0,0,0,7.39-2l-1.7-5.11a9.35,9.35,0,0,1-5.11,1.42c-2.84,0-4-1.7-4-4.54V244.48h9.66Zm50.56-.57a8,8,0,0,0-7.1,4v-3.41h-6v27.27h6V251c0-4.54,2-7.1,5.68-7.1a16.62,16.62,0,0,1,3.69.57l1.7-5.68a18.75,18.75,0,0,0-4-.28Zm-76.41,2.84c-2.84-2-6.82-2.84-11.08-2.84-6.82,0-11.36,3.41-11.36,8.81,0,4.54,3.41,7.1,9.37,8l2.84.28c3.12.57,4.83,1.42,4.83,2.84,0,2-2.27,3.41-6.25,3.41A15.68,15.68,0,0,1,675.6,259l-2.84,4.54a20.09,20.09,0,0,0,11.65,3.41c8,0,12.5-3.69,12.5-8.81,0-4.83-3.69-7.39-9.37-8.24l-2.84-.28c-2.56-.28-4.54-.85-4.54-2.56,0-2,2-3.12,5.11-3.12a20.48,20.48,0,0,1,8.52,2.27l2.56-4.83Zm158.5-2.84a8,8,0,0,0-7.1,4v-3.41h-6v27.27h6V251c0-4.54,2-7.1,5.68-7.1a16.62,16.62,0,0,1,3.69.57l1.7-5.68a18.75,18.75,0,0,0-4-.28Zm-76.13,14.2c0,8.24,5.68,14.2,14.49,14.2a14.13,14.13,0,0,0,9.66-3.12L800,259a11.48,11.48,0,0,1-7.1,2.56c-4.83,0-8.24-3.41-8.24-8.81a8.38,8.38,0,0,1,8.24-8.81,11.48,11.48,0,0,1,7.1,2.56l2.84-4.83a14.13,14.13,0,0,0-9.66-3.12c-8.81,0-14.49,6-14.49,14.2h0Zm55.11,0V239.09h-6v3.41a10.26,10.26,0,0,0-8.52-4c-7.67,0-13.63,6-13.63,14.2s6,14.2,13.63,14.2c4,0,6.82-1.42,8.52-4v3.41h6V252.72Zm-21.87,0c0-4.83,3.12-8.81,8.24-8.81,4.83,0,8.24,3.69,8.24,8.81,0,4.83-3.41,8.81-8.24,8.81-5.11-.28-8.24-4-8.24-8.81Zm-71.3-14.2c-8,0-13.63,5.68-13.63,14.2s5.68,14.2,13.92,14.2A17.37,17.37,0,0,0,752,263.23L749.17,259a13.57,13.57,0,0,1-8,2.84c-3.69,0-7.39-1.7-8.24-6.53h20.17V253c.28-8.81-4.83-14.49-12.5-14.49h0Zm0,5.11c3.69,0,6.25,2.27,6.82,6.53h-14.2c.57-3.69,3.12-6.53,7.39-6.53Zm148,9.09V228.29h-6v14.2a10.26,10.26,0,0,0-8.52-4c-7.67,0-13.63,6-13.63,14.2s6,14.2,13.63,14.2c4,0,6.82-1.42,8.52-4v3.41h6V252.72Zm-21.87,0c0-4.83,3.12-8.81,8.24-8.81,4.83,0,8.24,3.69,8.24,8.81,0,4.83-3.41,8.81-8.24,8.81-5.11-.28-8.24-4-8.24-8.81Zm-199.4,0V239.09h-6v3.41a10.26,10.26,0,0,0-8.52-4c-7.67,0-13.63,6-13.63,14.2s6,14.2,13.63,14.2c4,0,6.82-1.42,8.52-4v3.41h6V252.72Zm-22.16,0c0-4.83,3.12-8.81,8.24-8.81,4.83,0,8.24,3.69,8.24,8.81,0,4.83-3.41,8.81-8.24,8.81C648.33,261.24,645.2,257.55,645.2,252.72Z" transform="translate(-6.06 -10.14)"/></g><g id="_Group_" data-name="&lt;Group&gt;"><rect id="rect19" class="cls-4" x="688.29" y="21.87" width="89.48" height="160.77"/><path id="_Path_" data-name="&lt;Path&gt;" class="cls-5" d="M700,112.4A102.53,102.53,0,0,1,738.94,32a102.22,102.22,0,1,0-63.06,182.64,101.63,101.63,0,0,0,63.06-21.87A102.1,102.1,0,0,1,700,112.4Z" transform="translate(-6.06 -10.14)"/><path id="path22" class="cls-6" d="M904.54,112.4a102.15,102.15,0,0,1-165.32,80.39,102.48,102.48,0,0,0,0-160.77A102.15,102.15,0,0,1,904.54,112.4Z" transform="translate(-6.06 -10.14)"/></g></g></g></svg>