<svg xmlns="http://www.w3.org/2000/svg" viewBox="0 0 455.24 120.57"><defs><style>.cls-1{fill:#e30613;}.cls-2{fill:#1d1d1b;}</style></defs><title>Asset 1</title><g id="Layer_2" data-name="Layer 2"><g id="Layer_1-2" data-name="Layer 1"><path class="cls-1" d="M311.18,89.44q0,7.19-5.22,11.08t-15,3.89a67.93,67.93,0,0,1-17.67-2.14l2.2-9.78Q291.15,97.31,294.9,94a4.09,4.09,0,0,0,1.56-3.16q0-1.8-2.33-3.2a29,29,0,0,0-5.62-2.53A57.16,57.16,0,0,1,282,82.48a14.37,14.37,0,0,1-5.43-4.67,12.5,12.5,0,0,1-2.23-7.48q0-7.11,5.19-10.91t13.79-3.81a61,61,0,0,1,16.77,2.33l-1.75,10q-7.93-2.82-12.15-2.82-7.13,0-7.13,4,0,3.09,8.16,5.92,3.16,1.18,6.31,2.73a15,15,0,0,1,5.4,4.53,11.55,11.55,0,0,1,2.24,7.16"/><path class="cls-1" d="M316.35,103.49V39.6h13.44v23H330q6.28-7,13.8-7,14.58,0,14.58,15.09v32.79H344.92V73.27q0-6.88-6.6-6.88-3.95,0-8.53,3.39v33.71Z"/><path class="cls-1" d="M384.81,65.1q-8.44,0-8.44,14.91t8.44,14.91q8.44,0,8.49-14.91T384.81,65.1M407.37,80q0,10.61-5.59,17.5t-17,6.89q-11.47,0-17-6.88T362.29,80q0-10.69,5.55-17.57t16.92-6.83q11.37,0,17,6.89T407.37,80"/><path class="cls-1" d="M438.91,90q2.25-3.62,2.24-10t-2.24-10a7.18,7.18,0,0,0-6.47-3.62A11.08,11.08,0,0,0,425.1,69V91a11.08,11.08,0,0,0,7.34,2.62A7.18,7.18,0,0,0,438.91,90M450.84,62.4q4.4,6.79,4.4,17.52t-4.77,17.61q-4.77,6.93-13.89,6.88a13.92,13.92,0,0,1-11.28-5.23h-.19v21.23H411.67V56.53h12l1.42,4.68h.19a16,16,0,0,1,12.1-5.6q9,0,13.44,6.79"/><path class="cls-2" d="M175.38,80q0-8-3.16-12.91a10.32,10.32,0,0,0-9.35-4.95,16.74,16.74,0,0,0-11.14,4.17V93.82a16.49,16.49,0,0,0,11.05,4q6.33,0,9.45-4.9T175.38,80m8.49,0q0,10.85-4.74,17.64t-14,6.78A18.12,18.12,0,0,1,151.9,99h-.18v21.42h-8.07V56.53h7.25l.83,4.72h.18a19.35,19.35,0,0,1,14.26-5.63q8.62,0,13.14,6.76T183.87,80"/><path class="cls-2" d="M194.31,91.2a6.38,6.38,0,0,0,2.16,5.14,9.29,9.29,0,0,0,6.1,1.88,17.66,17.66,0,0,0,13.35-5.92v-12q-10.32.65-16,3.62t-5.64,7.29m21.6-20.78q0-9-10.87-9-5.64,0-14.49,3.39l-1.79-5.55q21-7.38,30.5,0Q224,63,224,70.15v33.34h-7.2l-.87-5.64a22.42,22.42,0,0,1-15.78,6.56,15.26,15.26,0,0,1-10-3.21,10.64,10.64,0,0,1-3.94-8.71q0-7.89,7.29-11.93t22.38-5.32Z"/><polygon class="cls-2" points="226.26 56.53 235.39 56.53 244.01 81.06 248.74 95.88 249.01 95.88 253.69 81.16 262.45 56.53 271.16 56.53 247.59 120.41 239.88 120.41 246.53 101.97 243.09 101.97 226.26 56.53"/><path class="cls-1" d="M88.22,113.23a7.35,7.35,0,1,1,7.37,7.34,7.35,7.35,0,0,1-7.37-7.34m-17.63,0a7.35,7.35,0,1,1,7.34,7.34,7.33,7.33,0,0,1-7.34-7.34m-17.65,0a7.36,7.36,0,1,1,7.36,7.34,7.35,7.35,0,0,1-7.36-7.34m-17.66,0a7.35,7.35,0,1,1,7.35,7.34,7.35,7.35,0,0,1-7.35-7.34m-17.63,0A7.35,7.35,0,1,1,25,120.57a7.33,7.33,0,0,1-7.34-7.34m88.23-52.94a7.35,7.35,0,1,1,7.35,7.36,7.34,7.34,0,0,1-7.35-7.36M88.22,95.57a7.35,7.35,0,1,1,7.37,7.35,7.36,7.36,0,0,1-7.37-7.35m-17.63,0a7.35,7.35,0,1,1,7.34,7.35,7.34,7.34,0,0,1-7.34-7.35m-17.65,0a7.36,7.36,0,1,1,7.36,7.35,7.35,7.35,0,0,1-7.36-7.35m-17.66,0a7.35,7.35,0,1,1,7.35,7.35,7.36,7.36,0,0,1-7.35-7.35m-17.63,0A7.35,7.35,0,1,1,25,102.93a7.34,7.34,0,0,1-7.34-7.35M88.22,77.94a7.35,7.35,0,1,1,7.37,7.34,7.37,7.37,0,0,1-7.37-7.34m-17.63,0a7.35,7.35,0,1,1,7.34,7.34,7.35,7.35,0,0,1-7.34-7.34m-17.65,0a7.36,7.36,0,1,1,7.36,7.34,7.36,7.36,0,0,1-7.36-7.34m-17.66,0a7.35,7.35,0,1,1,7.35,7.34,7.37,7.37,0,0,1-7.35-7.34m-17.63,0A7.35,7.35,0,1,1,25,85.28a7.35,7.35,0,0,1-7.34-7.34M88.22,60.29a7.35,7.35,0,1,1,7.37,7.36,7.36,7.36,0,0,1-7.37-7.36m-17.63,0a7.35,7.35,0,1,1,7.34,7.36,7.34,7.34,0,0,1-7.34-7.36m-17.65,0a7.36,7.36,0,1,1,7.36,7.36,7.35,7.35,0,0,1-7.36-7.36m-17.66,0a7.35,7.35,0,1,1,7.35,7.36,7.36,7.36,0,0,1-7.35-7.36m-17.63,0A7.35,7.35,0,1,1,25,67.65a7.34,7.34,0,0,1-7.34-7.36M0,60.29a7.35,7.35,0,1,1,7.36,7.36A7.36,7.36,0,0,1,0,60.29M88.22,42.65A7.35,7.35,0,1,1,95.59,50a7.37,7.37,0,0,1-7.37-7.34m-17.63,0A7.35,7.35,0,1,1,77.94,50a7.35,7.35,0,0,1-7.34-7.34m-17.65,0A7.36,7.36,0,1,1,60.31,50a7.36,7.36,0,0,1-7.36-7.34m-17.66,0A7.35,7.35,0,1,1,42.64,50a7.37,7.37,0,0,1-7.35-7.34m-17.63,0A7.35,7.35,0,1,1,25,50a7.35,7.35,0,0,1-7.34-7.34M70.6,25a7.35,7.35,0,1,1,7.34,7.35A7.34,7.34,0,0,1,70.6,25M52.95,25a7.36,7.36,0,1,1,7.36,7.35A7.35,7.35,0,0,1,52.95,25M35.29,25a7.35,7.35,0,1,1,7.35,7.35A7.36,7.36,0,0,1,35.29,25M52.95,7.35a7.36,7.36,0,1,1,7.36,7.34,7.35,7.35,0,0,1-7.36-7.34"/></g></g></svg>